<svg width="1402.39736328125px" height="360.8712646484375px" xmlns="http://www.w3.org/2000/svg" viewBox="-451.19868164062495 -105.43563232421874 1402.39736328125 360.8712646484375" style="background-image: none;" preserveAspectRatio="xMidYMid"><defs><filter id="editing-hover" x="-100%" y="-100%" width="300%" height="300%"><feFlood flood-color="#ffffff" result="flood"></feFlood><feComposite operator="in" in2="SourceAlpha" in="flood" result="shadow"></feComposite><feOffset dx="1.5" dy="-4" in="SourceGraphic" result="offset-1"></feOffset><feOffset dx="-1.5" dy="4" in="shadow" result="offset-2"></feOffset><feMerge><feMergeNode in="offset-2"></feMergeNode><feMergeNode in="offset-1"></feMergeNode></feMerge></filter></defs><g filter="url(#editing-hover)"><g transform="translate(-254.92556142807007, 152.66378021240234)"><path d="M51.40-10L51.40-10L51.40-131L20.20-131L14.40-102.40L14.40-102.40Q9.60-101.60 6.40-103L6.40-103L6.40-103Q3.80-126 4.40-140L4.40-140L121.40-140L121.40-140Q122-124 119.20-103L119.20-103L119.20-103Q116-101.60 111.20-102.40L111.20-102.40L105.40-131L72.40-131L72.40-10L89-6L89-6Q89.60-2.20 88 1L88 1L88 1Q70 0 62.40 0L62.40 0L62.40 0Q53.40 0 35 1L35 1L35 1Q34.40-3 35.40-6L35.40-6L35.40-6Q43.20-7 51.40-10ZM140.80-24L140.80-24L140.80-24Q140.80-16 145.10-11.80L145.10-11.80L145.10-11.80Q149.40-7.60 156.80-7.60L156.80-7.60L156.80-7.60Q162.40-7.60 168.70-11L168.70-11L168.70-11Q175-14.40 178.20-19L178.20-19L178.20-46L178.20-46Q157.60-46 149.20-41.10L149.20-41.10L149.20-41.10Q140.80-36.20 140.80-24ZM197.80-63.40L197.80-63.40L197.80-9.80L197.80-9.80Q200.80-8.20 211.80-5.80L211.80-5.80L211.80-5.80Q212.40-2 210.80 1.20L210.80 1.20L210.80 1.20Q203.40 2.60 194 2.60L194 2.60L194 2.60Q187.40 2.60 182.60 1.40L182.60 1.40L179.80-9L179-9L179-9Q167 3.40 149.20 3.40L149.20 3.40L149.20 3.40Q136.40 3.40 128.60-3.30L128.60-3.30L128.60-3.30Q120.80-10 120.80-22L120.80-22L120.80-22Q121.00-55 178.20-54L178.20-54L178.40-71.60L178.40-71.60Q178.60-94.80 160.80-95L160.80-95L160.80-95Q150.20-95 142-92L142-92L139.40-70.80L139.40-70.80Q135.40-69.40 130.60-70L130.60-70L130.60-70Q126.40-85.20 126.60-96L126.60-96L126.60-96Q143.20-104 166.20-104L166.20-104L166.20-104Q183.40-104.20 190.60-95.20L190.60-95.20L190.60-95.20Q197.80-86.20 197.80-63.40ZM252-149L252-149L252-10L267.40-6L267.40-6Q268-2.20 266.40 1L266.40 1L266.40 1Q248.40 0 242 0L242 0L242 0Q236.20 0 217.60 1L217.60 1L217.60 1Q217-2.80 218-6L218-6L218-6Q229.20-8.80 232-10L232-10L232-137.20L215.40-138.80L215.40-138.80Q214.80-142.80 216.40-145.80L216.40-145.80L216.40-145.80Q233-148.20 244.40-151.20L244.40-151.20L244.40-151.20Q247.80-151 252-149ZM307.80-149L307.80-149L307.80-10L323.20-6L323.20-6Q323.80-2.20 322.20 1L322.20 1L322.20 1Q304.20 0 297.80 0L297.80 0L297.80 0Q292 0 273.40 1L273.40 1L273.40 1Q272.80-2.80 273.80-6L273.80-6L273.80-6Q285-8.80 287.80-10L287.80-10L287.80-137.20L271.20-138.80L271.20-138.80Q270.60-142.80 272.20-145.80L272.20-145.80L272.20-145.80Q288.80-148.20 300.20-151.20L300.20-151.20L300.20-151.20Q303.60-151 307.80-149ZM505.60-130L505.60-130L505.60-10L521-6L521-6Q521.60-2.20 520 1L520 1L520 1Q502 0 495.60 0L495.60 0L495.60 0Q486.80 0 468.20 1L468.20 1L468.20 1Q467.60-2.80 468.60-6L468.60-6L468.60-6Q477.60-7.20 484.60-10L484.60-10L484.60-68L417.60-68L417.60-10L433-6L433-6Q433.60-2.20 432 1L432 1L432 1Q414 0 407.60 0L407.60 0L407.60 0Q398.80 0 380.20 1L380.20 1L380.20 1Q379.60-2.80 380.60-6L380.60-6L380.60-6Q391.40-7.80 396.60-10L396.60-10L396.60-130L381.20-134L381.20-134Q380.60-137.80 382.20-141L382.20-141L382.20-141Q400.20-140 406.60-140L406.60-140L406.60-140Q415.60-140 434-141L434-141L434-141Q434.80-137.20 433.60-134L433.60-134L433.60-134Q423.20-132.20 417.60-130L417.60-130L417.60-79L484.60-79L484.60-130L469.20-134L469.20-134Q468.60-137.80 470.20-141L470.20-141L470.20-141Q488.20-140 494.60-140L494.60-140L494.60-140Q503.60-140 522-141L522-141L522-141Q522.80-137.20 521.60-134L521.60-134L521.60-134Q511.20-132.20 505.60-130ZM542.20-133.80L542.20-133.80L542.20-133.80Q542.20-137.60 546.80-141.60L546.80-141.60L546.80-141.60Q551.40-145.60 556.40-145.60L556.40-145.60L556.40-145.60Q561.40-145.60 565-141.10L565-141.10L565-141.10Q568.60-136.60 568.60-132L568.60-132L568.60-132Q568.60-128 564.10-124.10L564.10-124.10L564.10-124.10Q559.60-120.20 554.40-120.20L554.40-120.20L554.40-120.20Q549.80-120.20 546-124.70L546-124.70L546-124.70Q542.20-129.20 542.20-133.80ZM569.80-99.80L569.80-99.80L569.80-10L583.20-6L583.20-6Q583.80-2.20 582.20 1L582.20 1L582.20 1Q564.20 0 559.80 0L559.80 0L559.80 0Q553.80 0 535.40 1L535.40 1L535.40 1Q534.80-2.80 535.80-6L535.80-6L535.80-6Q547-8.60 549.80-10L549.80-10L549.80-88L533.20-89.60L533.20-89.60Q532.60-93.60 534.20-96.60L534.20-96.60L534.20-96.60Q550.80-99 562.20-102L562.20-102L562.20-102Q565.60-101.80 569.80-99.80ZM606.80-30L606.80-30L608.80-8.80L608.80-8.80Q615.40-5.20 627-5.20L627-5.20L627-5.20Q635.80-5.20 641.90-9L641.90-9L641.90-9Q648-12.80 648-20.40L648-20.40L648-20.40Q648-27.20 642-32.30L642-32.30L642-32.30Q636-37.40 621.40-44.20L621.40-44.20L621.40-44.20Q608.80-50 602.90-57.40L602.90-57.40L602.90-57.40Q597-64.80 597-76.40L597-76.40L597-76.40Q597-90 606.80-96.80L606.80-96.80L606.80-96.80Q616.60-103.60 632.40-103.60L632.40-103.60L632.40-103.60Q647.80-103.60 661.60-98L661.60-98L661.60-98Q661.60-97.20 661.70-95.80L661.70-95.80L661.70-95.80Q661.80-94.40 661.80-93.60L661.80-93.60L661.80-93.60Q661.80-81.80 658-70.60L658-70.60L658-70.60Q656-70.20 655-70.20L655-70.20L655-70.20Q652-70.20 649-71.40L649-71.40L645.80-93L645.80-93Q639.60-94.80 633-94.80L633-94.80L633-94.80Q624.80-94.80 619.30-91.40L619.30-91.40L619.30-91.40Q613.80-88 613.60-80.40L613.60-80.40L613.60-80.40Q613.60-73.60 618.60-68.80L618.60-68.80L618.60-68.80Q623.60-64 637.40-57.40L637.40-57.40L637.40-57.40Q653.60-49.60 660-42.60L660-42.60L660-42.60Q666.40-35.60 666.40-25L666.40-25L666.40-25Q666.40-11.40 655.90-3.70L655.90-3.70L655.90-3.70Q645.40 4 628.40 4L628.40 4L628.40 4Q607.40 4.40 594.60-4L594.60-4L594.60-7.40L594.60-7.40Q594.40-20 598.20-30.80L598.20-30.80L598.20-30.80Q599.40-31 600.20-31L600.20-31L600.20-31Q603.80-31 606.80-30ZM706.80-149L706.80-149L706.80-91L707.80-90L707.80-90Q721.40-102 737.80-102L737.80-102L737.80-102Q757.40-101.80 768.60-87.70L768.60-87.70L768.60-87.70Q779.80-73.60 779.80-49.80L779.80-49.80L779.80-49.80Q779.80-24.20 765-10.10L765-10.10L765-10.10Q750.20 4 725.80 4L725.80 4L725.80 4Q705.60 3.60 687.80-3.60L687.80-3.60L687.80-137.20L671.20-138.80L671.20-138.80Q670.60-142.80 672.20-145.80L672.20-145.80L672.20-145.80Q685.60-147.80 698.80-151.20L698.80-151.20L698.80-151.20Q702.60-151 706.80-149ZM707.80-78.40L707.80-78.40L707.80-8.60L707.80-8.60Q716.60-4 727.80-4L727.80-4L727.80-4Q742.00-4 750.20-16.10L750.20-16.10L750.20-16.10Q758.40-28.20 758.40-49.80L758.40-49.80L758.40-49.80Q758.40-69.40 751-79.80L751-79.80L751-79.80Q743.60-90.20 731.80-90.20L731.80-90.20L731.80-90.20Q725.00-90.20 717.90-86.40L717.90-86.40L717.90-86.40Q710.80-82.60 707.80-78.40ZM813.60-24L813.60-24L813.60-24Q813.60-16 817.90-11.80L817.90-11.80L817.90-11.80Q822.20-7.60 829.60-7.60L829.60-7.60L829.60-7.60Q835.20-7.60 841.50-11L841.50-11L841.50-11Q847.80-14.40 851.00-19L851.00-19L851.00-46L851.00-46Q830.40-46 822.00-41.10L822.00-41.10L822.00-41.10Q813.60-36.20 813.60-24ZM870.60-63.40L870.60-63.40L870.60-9.80L870.60-9.80Q873.60-8.20 884.60-5.80L884.60-5.80L884.60-5.80Q885.20-2 883.60 1.20L883.60 1.20L883.60 1.20Q876.20 2.60 866.80 2.60L866.80 2.60L866.80 2.60Q860.20 2.60 855.40 1.40L855.40 1.40L852.60-9L851.80-9L851.80-9Q839.80 3.40 822.00 3.40L822.00 3.40L822.00 3.40Q809.20 3.40 801.40-3.30L801.40-3.30L801.40-3.30Q793.60-10 793.60-22L793.60-22L793.60-22Q793.80-55 851.00-54L851.00-54L851.20-71.60L851.20-71.60Q851.40-94.80 833.60-95L833.60-95L833.60-95Q823.00-95 814.80-92L814.80-92L812.20-70.80L812.20-70.80Q808.20-69.40 803.40-70L803.40-70L803.40-70Q799.20-85.20 799.40-96L799.40-96L799.40-96Q816.00-104 839.00-104L839.00-104L839.00-104Q856.20-104.20 863.40-95.20L863.40-95.20L863.40-95.20Q870.60-86.20 870.60-63.40ZM926-100.20L926-100.20L925.40-86.60L925.60-86.40L925.60-86.40Q942.40-102.80 963.20-103.20L963.20-103.20L963.20-103.20Q976.40-103.20 983.80-95.70L983.80-95.70L983.80-95.70Q991.20-88.20 991.20-74.20L991.20-74.20L991.40-10L1005.40-6L1005.40-6Q1006-2.20 1004.40 1L1004.40 1L1004.40 1Q988.40 0 981.40 0L981.40 0L981.40 0Q974.20 0 957.80 1L957.80 1L957.80 1Q957.20-2.80 958.20-6L958.20-6L958.20-6Q964.40-7.20 971.40-10L971.40-10L971.40-65.20L971.40-65.20Q971.40-78.40 967.30-83.80L967.30-83.80L967.30-83.80Q963.20-89.20 953.80-89.20L953.80-89.20L953.80-89.20Q937.60-89.20 927-77.20L927-77.20L927-10L940.40-6L940.40-6Q941-2.20 939.40 1L939.40 1L939.40 1Q923.40 0 917 0L917 0L917 0Q911 0 892.60 1L892.60 1L892.60 1Q892-2.80 893-6L893-6L893-6Q902.60-8.40 907-10L907-10L907-88L890.40-89.60L890.40-89.60Q889.80-93.60 891.40-96.60L891.40-96.60L891.40-96.60Q906.80-99.20 919.20-102L919.20-102L919.20-102Q922.60-101.80 926-100.20Z" fill="#ff4400"></path></g></g><style>text {
  font-size: 64px;
  font-family: Arial Black;
  dominant-baseline: central;
  text-anchor: middle;
}</style></svg>