<svg width="593.70751953125px" height="161.461279296875px" xmlns="http://www.w3.org/2000/svg" viewBox="-46.853759765625 -5.730639648437503 593.70751953125 161.461279296875" style="background-image: none;" preserveAspectRatio="xMidYMid"><defs><filter id="editing-hover" x="-100%" y="-100%" width="300%" height="300%"><feFlood flood-color="#ffffff" result="flood"></feFlood><feComposite operator="in" in2="SourceAlpha" in="flood" result="shadow"></feComposite><feOffset dx="-4" dy="-4" in="SourceGraphic" result="offset-1"></feOffset><feOffset dx="4" dy="4" in="shadow" result="offset-2"></feOffset><feMerge><feMergeNode in="offset-2"></feMergeNode><feMergeNode in="offset-1"></feMergeNode></feMerge></filter></defs><g filter="url(#editing-hover)"><g transform="translate(40.45415985584259, 107.23238372802734)"><path d="M21.33-4.15L21.33-4.15L21.33-54.37L8.38-54.37L5.98-42.50L5.98-42.50Q3.98-42.16 2.66-42.75L2.66-42.75L2.66-42.75Q1.58-52.29 1.83-58.10L1.83-58.10L50.38-58.10L50.38-58.10Q50.63-51.46 49.47-42.75L49.47-42.75L49.47-42.75Q48.14-42.16 46.15-42.50L46.15-42.50L43.74-54.37L30.05-54.37L30.05-4.15L36.94-2.49L36.94-2.49Q37.18-0.91 36.52 0.42L36.52 0.42L36.52 0.42Q29.05 0 25.90 0L25.90 0L25.90 0Q22.16 0 14.53 0.42L14.53 0.42L14.53 0.42Q14.28-1.25 14.69-2.49L14.69-2.49L14.69-2.49Q17.93-2.91 21.33-4.15ZM58.43-9.96L58.43-9.96L58.43-9.96Q58.43-6.64 60.22-4.90L60.22-4.90L60.22-4.90Q62.00-3.15 65.07-3.15L65.07-3.15L65.07-3.15Q67.40-3.15 70.01-4.57L70.01-4.57L70.01-4.57Q72.63-5.98 73.95-7.89L73.95-7.89L73.95-19.09L73.95-19.09Q65.40-19.09 61.92-17.06L61.92-17.06L61.92-17.06Q58.43-15.02 58.43-9.96ZM82.09-26.31L82.09-26.31L82.09-4.07L82.09-4.07Q83.33-3.40 87.90-2.41L87.90-2.41L87.90-2.41Q88.15-0.83 87.48 0.50L87.48 0.50L87.48 0.50Q84.41 1.08 80.51 1.08L80.51 1.08L80.51 1.08Q77.77 1.08 75.78 0.58L75.78 0.58L74.62-3.74L74.28-3.74L74.28-3.74Q69.31 1.41 61.92 1.41L61.92 1.41L61.92 1.41Q56.61 1.41 53.37-1.37L53.37-1.37L53.37-1.37Q50.13-4.15 50.13-9.13L50.13-9.13L50.13-9.13Q50.22-22.83 73.95-22.41L73.95-22.41L74.04-29.71L74.04-29.71Q74.12-39.34 66.73-39.43L66.73-39.43L66.73-39.43Q62.33-39.43 58.93-38.18L58.93-38.18L57.85-29.38L57.85-29.38Q56.19-28.80 54.20-29.05L54.20-29.05L54.20-29.05Q52.46-35.36 52.54-39.84L52.54-39.84L52.54-39.84Q59.43-43.16 68.97-43.16L68.97-43.16L68.97-43.16Q76.11-43.24 79.10-39.51L79.10-39.51L79.10-39.51Q82.09-35.77 82.09-26.31ZM104.58-61.84L104.58-61.84L104.58-4.15L110.97-2.49L110.97-2.49Q111.22-0.91 110.56 0.42L110.56 0.42L110.56 0.42Q103.09 0 100.43 0L100.43 0L100.43 0Q98.02 0 90.30 0.42L90.30 0.42L90.30 0.42Q90.06-1.16 90.47-2.49L90.47-2.49L90.47-2.49Q95.12-3.65 96.28-4.15L96.28-4.15L96.28-56.94L89.39-57.60L89.39-57.60Q89.14-59.26 89.81-60.51L89.81-60.51L89.81-60.51Q96.70-61.50 101.43-62.75L101.43-62.75L101.43-62.75Q102.84-62.67 104.58-61.84ZM127.74-61.84L127.74-61.84L127.74-4.15L134.13-2.49L134.13-2.49Q134.38-0.91 133.71 0.42L133.71 0.42L133.71 0.42Q126.24 0 123.59 0L123.59 0L123.59 0Q121.18 0 113.46 0.42L113.46 0.42L113.46 0.42Q113.21-1.16 113.63-2.49L113.63-2.49L113.63-2.49Q118.28-3.65 119.44-4.15L119.44-4.15L119.44-56.94L112.55-57.60L112.55-57.60Q112.30-59.26 112.96-60.51L112.96-60.51L112.96-60.51Q119.85-61.50 124.58-62.75L124.58-62.75L124.58-62.75Q125.99-62.67 127.74-61.84ZM209.82-53.95L209.82-53.95L209.82-4.15L216.21-2.49L216.21-2.49Q216.46-0.91 215.80 0.42L215.80 0.42L215.80 0.42Q208.33 0 205.67 0L205.67 0L205.67 0Q202.02 0 194.30 0.42L194.30 0.42L194.30 0.42Q194.05-1.16 194.47-2.49L194.47-2.49L194.47-2.49Q198.20-2.99 201.11-4.15L201.11-4.15L201.11-28.22L173.30-28.22L173.30-4.15L179.69-2.49L179.69-2.49Q179.94-0.91 179.28 0.42L179.28 0.42L179.28 0.42Q171.81 0 169.15 0L169.15 0L169.15 0Q165.50 0 157.78 0.42L157.78 0.42L157.78 0.42Q157.53-1.16 157.95-2.49L157.95-2.49L157.95-2.49Q162.43-3.24 164.59-4.15L164.59-4.15L164.59-53.95L158.20-55.61L158.20-55.61Q157.95-57.19 158.61-58.52L158.61-58.52L158.61-58.52Q166.08-58.10 168.74-58.10L168.74-58.10L168.74-58.10Q172.47-58.10 180.11-58.52L180.11-58.52L180.11-58.52Q180.44-56.94 179.94-55.61L179.94-55.61L179.94-55.61Q175.63-54.86 173.30-53.95L173.30-53.95L173.30-32.79L201.11-32.79L201.11-53.95L194.72-55.61L194.72-55.61Q194.47-57.19 195.13-58.52L195.13-58.52L195.13-58.52Q202.60-58.10 205.26-58.10L205.26-58.10L205.26-58.10Q208.99-58.10 216.63-58.52L216.63-58.52L216.63-58.52Q216.96-56.94 216.46-55.61L216.46-55.61L216.46-55.61Q212.15-54.86 209.82-53.95ZM225.01-55.53L225.01-55.53L225.01-55.53Q225.01-57.10 226.92-58.76L226.92-58.76L226.92-58.76Q228.83-60.42 230.91-60.42L230.91-60.42L230.91-60.42Q232.98-60.42 234.47-58.56L234.47-58.56L234.47-58.56Q235.97-56.69 235.97-54.78L235.97-54.78L235.97-54.78Q235.97-53.12 234.10-51.50L234.10-51.50L234.10-51.50Q232.23-49.88 230.08-49.88L230.08-49.88L230.08-49.88Q228.17-49.88 226.59-51.75L226.59-51.75L226.59-51.75Q225.01-53.62 225.01-55.53ZM236.47-41.42L236.47-41.42L236.47-4.15L242.03-2.49L242.03-2.49Q242.28-0.91 241.61 0.42L241.61 0.42L241.61 0.42Q234.14 0 232.32 0L232.32 0L232.32 0Q229.83 0 222.19 0.42L222.19 0.42L222.19 0.42Q221.94-1.16 222.36-2.49L222.36-2.49L222.36-2.49Q227.00-3.57 228.17-4.15L228.17-4.15L228.17-36.52L221.28-37.18L221.28-37.18Q221.03-38.84 221.69-40.09L221.69-40.09L221.69-40.09Q228.58-41.09 233.31-42.33L233.31-42.33L233.31-42.33Q234.72-42.25 236.47-41.42ZM251.82-12.45L251.82-12.45L252.65-3.65L252.65-3.65Q255.39-2.16 260.20-2.16L260.20-2.16L260.20-2.16Q263.86-2.16 266.39-3.74L266.39-3.74L266.39-3.74Q268.92-5.31 268.92-8.47L268.92-8.47L268.92-8.47Q268.92-11.29 266.43-13.40L266.43-13.40L266.43-13.40Q263.94-15.52 257.88-18.34L257.88-18.34L257.88-18.34Q252.65-20.75 250.20-23.82L250.20-23.82L250.20-23.82Q247.75-26.89 247.75-31.71L247.75-31.71L247.75-31.71Q247.75-37.35 251.82-40.17L251.82-40.17L251.82-40.17Q255.89-42.99 262.45-42.99L262.45-42.99L262.45-42.99Q268.84-42.99 274.56-40.67L274.56-40.67L274.56-40.67Q274.56-40.34 274.61-39.76L274.61-39.76L274.61-39.76Q274.65-39.18 274.65-38.84L274.65-38.84L274.65-38.84Q274.65-33.95 273.07-29.30L273.07-29.30L273.07-29.30Q272.24-29.13 271.82-29.13L271.82-29.13L271.82-29.13Q270.58-29.13 269.33-29.63L269.33-29.63L268.01-38.59L268.01-38.59Q265.43-39.34 262.69-39.34L262.69-39.34L262.69-39.34Q259.29-39.34 257.01-37.93L257.01-37.93L257.01-37.93Q254.73-36.52 254.64-33.37L254.64-33.37L254.64-33.37Q254.64-30.54 256.72-28.55L256.72-28.55L256.72-28.55Q258.79-26.56 264.52-23.82L264.52-23.82L264.52-23.82Q271.24-20.58 273.90-17.68L273.90-17.68L273.90-17.68Q276.56-14.77 276.56-10.38L276.56-10.38L276.56-10.38Q276.56-4.73 272.20-1.54L272.20-1.54L272.20-1.54Q267.84 1.66 260.79 1.66L260.79 1.66L260.79 1.66Q252.07 1.83 246.76-1.66L246.76-1.66L246.76-3.07L246.76-3.07Q246.68-8.30 248.25-12.78L248.25-12.78L248.25-12.78Q248.75-12.87 249.08-12.87L249.08-12.87L249.08-12.87Q250.58-12.87 251.82-12.45ZM293.32-61.84L293.32-61.84L293.32-37.77L293.74-37.35L293.74-37.35Q299.38-42.33 306.19-42.33L306.19-42.33L306.19-42.33Q314.32-42.25 318.97-36.40L318.97-36.40L318.97-36.40Q323.62-30.54 323.62-20.67L323.62-20.67L323.62-20.67Q323.62-10.04 317.47-4.19L317.47-4.19L317.47-4.19Q311.33 1.66 301.21 1.66L301.21 1.66L301.21 1.66Q292.82 1.49 285.44-1.49L285.44-1.49L285.44-56.94L278.55-57.60L278.55-57.60Q278.30-59.26 278.96-60.51L278.96-60.51L278.96-60.51Q284.52-61.34 290.00-62.75L290.00-62.75L290.00-62.75Q291.58-62.67 293.32-61.84ZM293.74-32.54L293.74-32.54L293.74-3.57L293.74-3.57Q297.39-1.66 302.04-1.66L302.04-1.66L302.04-1.66Q307.93-1.66 311.33-6.68L311.33-6.68L311.33-6.68Q314.74-11.70 314.74-20.67L314.74-20.67L314.74-20.67Q314.74-28.80 311.66-33.12L311.66-33.12L311.66-33.12Q308.59-37.43 303.70-37.43L303.70-37.43L303.70-37.43Q300.88-37.43 297.93-35.86L297.93-35.86L297.93-35.86Q294.98-34.28 293.74-32.54ZM337.64-9.96L337.64-9.96L337.64-9.96Q337.64-6.64 339.43-4.90L339.43-4.90L339.43-4.90Q341.21-3.15 344.28-3.15L344.28-3.15L344.28-3.15Q346.61-3.15 349.22-4.57L349.22-4.57L349.22-4.57Q351.84-5.98 353.16-7.89L353.16-7.89L353.16-19.09L353.16-19.09Q344.62-19.09 341.13-17.06L341.13-17.06L341.13-17.06Q337.64-15.02 337.64-9.96ZM361.30-26.31L361.30-26.31L361.30-4.07L361.30-4.07Q362.54-3.40 367.11-2.41L367.11-2.41L367.11-2.41Q367.36-0.83 366.69 0.50L366.69 0.50L366.69 0.50Q363.62 1.08 359.72 1.08L359.72 1.08L359.72 1.08Q356.98 1.08 354.99 0.58L354.99 0.58L353.83-3.74L353.50-3.74L353.50-3.74Q348.52 1.41 341.13 1.41L341.13 1.41L341.13 1.41Q335.82 1.41 332.58-1.37L332.58-1.37L332.58-1.37Q329.34-4.15 329.34-9.13L329.34-9.13L329.34-9.13Q329.43-22.83 353.16-22.41L353.16-22.41L353.25-29.71L353.25-29.71Q353.33-39.34 345.94-39.43L345.94-39.43L345.94-39.43Q341.54-39.43 338.14-38.18L338.14-38.18L337.06-29.38L337.06-29.38Q335.40-28.80 333.41-29.05L333.41-29.05L333.41-29.05Q331.67-35.36 331.75-39.84L331.75-39.84L331.75-39.84Q338.64-43.16 348.19-43.16L348.19-43.16L348.19-43.16Q355.32-43.24 358.31-39.51L358.31-39.51L358.31-39.51Q361.30-35.77 361.30-26.31ZM384.29-41.58L384.29-41.58L384.04-35.94L384.12-35.86L384.12-35.86Q391.10-42.66 399.73-42.83L399.73-42.83L399.73-42.83Q405.21-42.83 408.28-39.72L408.28-39.72L408.28-39.72Q411.35-36.60 411.35-30.79L411.35-30.79L411.43-4.15L417.24-2.49L417.24-2.49Q417.49-0.91 416.83 0.42L416.83 0.42L416.83 0.42Q410.19 0 407.28 0L407.28 0L407.28 0Q404.29 0 397.49 0.42L397.49 0.42L397.49 0.42Q397.24-1.16 397.65-2.49L397.65-2.49L397.65-2.49Q400.23-2.99 403.13-4.15L403.13-4.15L403.13-27.06L403.13-27.06Q403.13-32.54 401.43-34.78L401.43-34.78L401.43-34.78Q399.73-37.02 395.83-37.02L395.83-37.02L395.83-37.02Q389.10-37.02 384.70-32.04L384.70-32.04L384.70-4.15L390.27-2.49L390.27-2.49Q390.51-0.91 389.85 0.42L389.85 0.42L389.85 0.42Q383.21 0 380.56 0L380.56 0L380.56 0Q378.06 0 370.43 0.42L370.43 0.42L370.43 0.42Q370.18-1.16 370.59-2.49L370.59-2.49L370.59-2.49Q374.58-3.49 376.40-4.15L376.40-4.15L376.40-36.52L369.52-37.18L369.52-37.18Q369.27-38.84 369.93-40.09L369.93-40.09L369.93-40.09Q376.32-41.17 381.47-42.33L381.47-42.33L381.47-42.33Q382.88-42.25 384.29-41.58Z" fill="#ff4400"></path></g></g><style>text {
  font-size: 64px;
  font-family: Arial Black;
  dominant-baseline: central;
  text-anchor: middle;
}</style></svg>